<svg id="Capa_1" data-name="Capa 1" xmlns="http://www.w3.org/2000/svg" viewBox="0 0 954.15 277.78"><defs><style>.cls-1{fill:#0100a4;}</style></defs><title>graphic</title><path d="M69.16,35.94C75.75,61.33,99.91,77.63,124.77,82c32.29,5.68,64.4-8,92.58-22.35q24.33-12.33,47.77-26.34c7.42-4.42,15.06-10.39,23.57-12.49,9.51-2.35,19.94,2.09,29.05,4.56Q373,40.4,427.86,56.74q61.56,18.34,122.61,38.34l.4-3a131,131,0,0,1-53-9.77C482,75.81,463.78,65.65,454,51.05c-4.17-6.23-8.12-15.4-4-22.6,5-8.73,16.55-7.32,24.89-6,20.69,3.21,41.33,6.71,62,10.07L608.1,44.08c1.86.3,2.69-2.35.79-2.89a726.88,726.88,0,0,0-185.7-28.11c-1.76,0-1.94,2.41-.4,3C486,38,552.25,48.87,618.6,55.78,687.56,63,756.87,67.09,826,72.23l60.1,4.47c9.67.72,19.35,1.46,29,2.16,9.05.66,18.07,1,26.8-1.93a1.52,1.52,0,0,0,.66-2.51c-9.68-9.06-22.78-11-35.58-10.3-16.55.88-33.13,4.69-49.39,7.66Q802.36,81.91,747.74,95.21a1.5,1.5,0,0,0,.4,2.94A1140.1,1140.1,0,0,0,962,76.37a1.52,1.52,0,0,0,.66-2.51C937.31,43.14,892.48,44.1,856.34,46.44l.4,3,59.14-16.75c1.32-.37,1.53-2.65,0-2.89C878.67,23.92,841.13,27.7,804.1,33c-38.75,5.56-77.28,11.22-116.36,14-77.11,5.4-154.48,4-231.68,7.4-42.93,1.89-85.81,5.32-128.27,12.1-1.63.26-1.19,2.42,0,2.89L414,103.73l.4-2.94A1024.61,1024.61,0,0,1,263.7,82.43v2.89l10.58-3.89c1.08-.4,1.63-2.15.36-2.74a592.57,592.57,0,0,1-77.87-44L196,37.51l56.63,1.21c1.42,0,2.15-2.16.76-2.79a392.09,392.09,0,0,0-60.11-21.66c-1.59-.43-2.75,2-1.16,2.74A280.9,280.9,0,0,1,243.55,47.6l.75-2.8Q129.45,43.3,15.12,30.57a1.51,1.51,0,0,0-1.44,1.9c12.44,34.93,53.54,55.58,89,44.47a1.53,1.53,0,0,0,.35-2.75l-26.54-20-1.16,2.74L313.58,91.61c37.89,5.51,76,12.22,114.38,8,34.68-3.86,68.15-14.22,101.89-22.67,38.17-9.55,77.92-16.75,116.9-7.47l.4-2.94a154.77,154.77,0,0,1-77.48-26.27V42.8c12.88-8.9,28.68-3.21,43.07-4.53,10.25-.94,20.84-4.84,24.77-15.14l-1.85,1.05L699,33.39c1.89.28,2.7-2.61.8-2.89l-63.33-9.21a1.56,1.56,0,0,0-1.84,1.05C630.09,34.2,615,36,604,35.39c-12.16-.63-25.25-2.52-35.87,4.82a1.52,1.52,0,0,0,0,2.59,157.81,157.81,0,0,0,79,26.68c1.69.1,2-2.56.4-3C579,50.2,512,82.61,445.39,94.06a258.43,258.43,0,0,1-55.68,3.71c-20.28-.93-40.38-4-60.45-6.89L210.13,73.55l-134-19.5A1.51,1.51,0,0,0,75,56.79l26.55,20,.36-2.74c-33.8,10.61-73.38-8.93-85.29-42.37l-1.45,1.9Q129.29,46.29,244.3,47.8a1.51,1.51,0,0,0,.76-2.79,281.16,281.16,0,0,0-51.41-30.59l-1.16,2.74a387.65,387.65,0,0,1,59.4,21.36l.75-2.8L196,34.51a1.51,1.51,0,0,0-.75,2.8,592.45,592.45,0,0,0,77.86,44l.36-2.74L262.9,82.43c-1.26.46-1.58,2.58,0,2.89a1030.09,1030.09,0,0,0,151.47,18.47c1.81.08,1.86-2.37.4-3L328.59,66.48v2.89c75.89-12.11,152.88-13.26,229.56-14.68,38-.7,76-1.47,114-3.71,37.8-2.22,75.27-6.45,112.7-12.09,43-6.49,86.82-13,130.23-6.25V29.75L855.94,46.5c-1.58.45-1.33,3.06.4,2.94,35.38-2.29,79.37-3.56,104.19,26.54l.66-2.51A1135,1135,0,0,1,748.14,95.15l.39,2.95q51-12.4,102.6-22.07C867.5,73,884,69.47,900.58,67.66c13.84-1.51,29.15-1.18,39.9,8.88l.66-2.5C933,76.78,924.5,76.52,916,75.92c-8.72-.61-17.43-1.29-26.14-1.94l-52.58-3.91L732.11,62.25c-67-5-134.18-9.56-200.37-21.42-36.67-6.58-72.94-15.45-108.15-27.7l-.4,2.95a723.5,723.5,0,0,1,184.91,28l.79-2.89L536.73,29.46l-37-6c-10.38-1.69-20.88-4-31.38-4.85-7.32-.58-15.35.59-20,6.91-4.27,5.82-3.45,13.35-.87,19.69,6.66,16.42,24.14,27.62,39.29,35.34a134.07,134.07,0,0,0,64.1,14.6,1.5,1.5,0,0,0,.4-2.94Q445.1,57.43,337.39,27.66q-13.45-3.72-26.94-7.36c-7.41-2-14.87-4.31-22.55-2.37-7.18,1.81-13.45,6.25-19.69,10q-11.49,7-23.22,13.54C215,58.33,182.25,77.28,147.21,80,116.4,82.32,80.45,67.52,72.05,35.14a1.5,1.5,0,0,0-2.89.8Z" transform="translate(-13.61 145.17)"/><path class="cls-1" d="M63-18.43a227.78,227.78,0,0,0-45.73,72.7,1.51,1.51,0,0,0,1.84,1.85q96.51-39.73,193.32-78.71,96.38-38.79,193.05-76.82,54.69-21.51,109.46-42.77l-1.69-2.2c-18.5,34.67-45.05,64.65-69.39,95.26L366.26,48.44l-43.48,54.68a1.5,1.5,0,0,0,2.12,2.12l155-132,44.49-37.9-2.56-1.06a689.16,689.16,0,0,0-.36,104q1.83,25,5.49,49.85c1.84,12.54,3.78,27.17,15.7,34.33,9.63,5.79,22.22,5.06,32.21.62C588,117.24,597.62,106,607.08,95.61l71.86-78.77L759.69-71.7l-2.56-1.06A438.67,438.67,0,0,1,740,48.24a1.51,1.51,0,0,0,2.5,1.46l22.89-23.3L763,26.1l49.14,105.78a1.51,1.51,0,0,0,2.59,0Q862,39.67,917-48.25l-2.74-.35A835.17,835.17,0,0,1,934.14,58.72a1.52,1.52,0,0,0,2.56,1.06,149.72,149.72,0,0,0,30.77-37.45l-2.79-.76A38.26,38.26,0,0,1,959,44.5l1.69-.69q-72-17-142.24-40.24-34.23-11.32-68-24.13-17.7-6.72-35.25-13.84c-7.79-3.16-19.57-10.87-27.93-5.7-3.92,2.41-6.07,7.14-8.29,11L667.8-9.9,646.29,27l2.79.75L652-4.66a1.49,1.49,0,0,0-1.1-1.44c-61.8-13-125.15-4.31-186.09,9.09C447,6.92,429.19,11.26,411.43,15.64c-1.88.46-1.08,3.36.79,2.89,60.37-14.87,122-29.9,184.61-28a302.15,302.15,0,0,1,53.3,6.28L649-4.66l-2.95,32.41c-.14,1.54,2.09,2,2.8.76l18.7-32.08c5.72-9.82,11-20.13,17.3-29.6,4.21-6.33,9.83-6.23,16.38-3.74,5.55,2.12,11,4.53,16.53,6.75Q734.52-23.41,751.38-17q64.93,24.57,131.75,43.7,38.14,10.94,76.77,20a1.53,1.53,0,0,0,1.69-.69,41.13,41.13,0,0,0,6.09-24.44,1.52,1.52,0,0,0-2.8-.76,147.46,147.46,0,0,1-30.3,36.85l2.56,1.06a842.34,842.34,0,0,0-20-108.12,1.52,1.52,0,0,0-2.74-.36Q859.45,38.06,812.17,130.36h2.59L765.62,24.59a1.51,1.51,0,0,0-2.36-.31l-22.89,23.3L742.88,49a441.8,441.8,0,0,0,17.25-121.8,1.52,1.52,0,0,0-2.56-1.06L623.4,73.27c-10.43,11.44-20.48,23.49-31.68,34.2-10,9.59-22.6,17.62-37.06,15.85-16.12-2-21.59-15.69-23.89-30-2.65-16.42-4.53-33-5.87-49.57a687,687,0,0,1-.07-109.53c.11-1.41-1.66-1.83-2.56-1.06l-155,132-44.49,37.9,2.12,2.12C376.64,40.17,428.92-24.51,480.08-90c13.11-16.78,25.67-34,35.71-52.84.56-1-.39-2.71-1.69-2.2q-97.29,37.75-194.28,76.3Q223.28-30.42,127,8.72,72.6,30.85,18.27,53.22l1.84,1.85a224,224,0,0,1,45-71.38c1.32-1.41-.8-3.54-2.12-2.12Z" transform="translate(-13.61 145.17)"/><path class="cls-1" d="M213.51,98.27a1.5,1.5,0,0,0,0-3,1.5,1.5,0,0,0,0,3Z" transform="translate(-13.61 145.17)"/></svg>